<?xml version="1.0" encoding="UTF-8"?>
<!-- APOCAM logo - vetor traçado a partir do PNG original | cores exatas da marca -->
<svg xmlns="http://www.w3.org/2000/svg" width="1200" height="1048" viewBox="0 0 1200 1048" fill-rule="evenodd" shape-rendering="geometricPrecision"><title>APOCAM logo (folhas coloridas, texto branco)</title>
<path fill="#289d99" fill-rule="evenodd" d="M542.000,670.500C535.667,668.167 534.667,668.667 523.000,663.500C511.333,658.333 505.000,656.333 472.000,639.500C439.000,622.667 353.667,577.833 325.000,562.500C296.333,547.167 308.167,552.833 300.000,547.500C291.833,542.167 284.917,538.083 276.000,530.500C267.083,522.917 253.250,508.917 246.500,502.000C239.750,495.083 238.667,493.333 235.500,489.000C232.333,484.667 231.167,482.833 227.500,476.000C223.833,469.167 218.000,458.500 213.500,448.000C209.000,437.500 203.833,422.833 200.500,413.000C197.167,403.167 196.167,400.000 193.500,389.000C190.833,378.000 186.167,356.167 184.500,347.000C182.833,337.833 184.333,338.833 183.500,334.000C182.667,329.167 181.167,327.667 179.500,318.000C177.833,308.333 174.500,283.667 173.500,276.000C172.500,268.333 173.250,272.917 173.500,272.000C173.750,271.083 174.500,271.000 175.000,270.500C206.000,288.500 251.750,314.750 268.000,324.500C284.250,334.250 266.417,312.417 272.500,329.000C278.583,345.583 294.667,399.167 304.500,424.000C314.333,448.833 325.333,466.333 331.500,478.000C337.667,489.667 337.417,488.417 341.500,494.000C345.583,499.583 351.167,505.667 356.000,511.500C355.500,509.667 358.917,514.750 354.500,506.000C350.083,497.250 336.500,473.167 329.500,459.000C322.500,444.833 317.833,434.500 312.500,421.000C307.167,407.500 301.167,390.000 297.500,378.000C293.833,366.000 292.167,355.000 290.500,349.000C288.833,343.000 288.500,344.333 287.500,342.000C288.667,341.833 289.750,341.250 291.000,341.500C292.250,341.750 289.833,340.000 295.000,343.500C300.167,347.000 310.167,353.500 322.000,362.500C333.833,371.500 354.083,386.917 366.000,397.500C377.917,408.083 386.083,417.750 393.500,426.000C400.917,434.250 403.833,437.333 410.500,447.000C417.167,456.667 426.333,471.833 433.500,484.000C440.667,496.167 445.000,505.667 453.500,520.000C462.000,534.333 472.333,549.167 484.500,570.000C496.667,590.833 516.833,628.500 526.500,645.000C536.167,661.500 539.917,664.750 542.500,669.000C545.083,673.250 542.167,670.000 542.000,670.500Z M658.000,670.500C651.083,673.250 656.333,670.167 655.500,670.000C655.833,669.000 647.167,682.333 656.500,667.000C665.833,651.667 694.500,606.500 711.500,578.000C728.500,549.500 744.833,519.167 758.500,496.000C772.167,472.833 784.667,452.167 793.500,439.000C802.333,425.833 797.250,430.083 811.500,417.000C825.750,403.917 863.583,372.750 879.000,360.500C894.417,348.250 898.583,346.750 904.000,343.500C909.417,340.250 909.000,341.833 911.500,341.000C910.167,347.333 911.500,346.667 907.500,360.000C903.500,373.333 896.167,399.500 887.500,421.000C878.833,442.500 863.500,473.500 855.500,489.000C847.500,504.500 844.833,505.667 839.500,514.000C840.000,514.500 840.500,515.000 841.000,515.500C849.833,503.000 859.750,490.250 867.500,478.000C875.250,465.750 881.167,455.833 887.500,442.000C893.833,428.167 901.000,408.000 905.500,395.000C910.000,382.000 910.833,375.167 914.500,364.000C918.167,352.833 913.917,341.083 927.500,328.000C941.083,314.917 979.917,294.917 996.000,285.500C1012.083,276.083 1014.667,276.167 1024.000,271.500C1024.500,272.667 1025.417,271.250 1025.500,275.000C1025.583,278.750 1025.500,287.000 1024.500,294.000C1023.500,301.000 1020.500,311.167 1019.500,317.000C1018.500,322.833 1020.833,316.667 1018.500,329.000C1016.167,341.333 1008.667,377.333 1005.500,391.000C1002.333,404.667 1002.500,402.333 999.500,411.000C996.500,419.667 991.167,434.167 987.500,443.000C983.833,451.833 981.167,457.167 977.500,464.000C973.833,470.833 970.500,476.833 965.500,484.000C960.500,491.167 955.750,498.250 947.500,507.000C939.250,515.750 931.583,525.250 916.000,536.500C900.417,547.750 890.500,555.000 854.000,574.500C817.500,594.000 729.667,637.500 697.000,653.500C664.333,669.500 664.917,667.750 658.000,670.500Z"/>
<path fill="#eb7e1e" fill-rule="evenodd" d="M392.000,726.500C375.833,727.000 340.000,727.833 320.000,726.500C300.000,725.167 284.500,721.167 272.000,718.500C259.500,715.833 250.083,712.417 245.000,710.500C239.917,708.583 242.667,708.167 241.500,707.000C247.333,702.167 255.583,695.083 259.000,692.500C262.417,689.917 260.750,692.417 262.000,691.500C263.250,690.583 265.833,688.167 266.500,687.000C267.167,685.833 266.167,685.333 266.000,684.500C250.333,682.500 231.167,680.833 219.000,678.500C206.833,676.167 199.167,672.667 193.000,670.500C186.833,668.333 189.333,670.000 182.000,665.500C174.667,661.000 160.000,651.667 149.000,643.500C138.000,635.333 127.083,626.583 116.000,616.500C104.917,606.417 88.583,589.417 82.500,583.000C76.417,576.583 80.500,579.667 79.500,578.000C80.667,577.167 79.750,576.417 83.000,575.500C86.250,574.583 91.500,573.500 99.000,572.500C106.500,571.500 112.167,570.167 128.000,569.500C143.833,568.833 182.333,568.500 194.000,568.500C205.667,568.500 194.167,566.000 198.000,569.500C201.833,573.000 209.667,582.667 217.000,589.500C224.333,596.333 233.667,603.500 242.000,610.500C241.833,609.667 247.083,614.417 241.500,608.000C235.917,601.583 219.500,584.000 208.500,572.000C208.667,571.500 208.833,571.000 209.000,570.500C217.667,570.500 227.333,570.167 235.000,570.500C242.667,570.833 244.167,570.667 255.000,572.500C265.833,574.333 289.000,578.667 300.000,581.500C311.000,584.333 313.333,586.167 321.000,589.500C328.667,592.833 324.167,589.000 346.000,601.500C367.833,614.000 424.083,648.417 452.000,664.500C479.917,680.583 493.000,686.833 513.500,698.000C508.333,700.167 507.417,701.583 498.000,704.500C488.583,707.417 470.500,712.333 457.000,715.500C443.500,718.667 427.833,721.667 417.000,723.500C406.167,725.333 408.167,726.000 392.000,726.500Z M839.000,727.500C824.667,728.167 828.500,729.167 814.000,727.500C799.500,725.833 770.500,721.167 752.000,717.500C733.500,713.833 714.000,708.500 703.000,705.500C692.000,702.500 689.083,700.917 686.000,699.500C682.917,698.083 685.000,697.833 684.500,697.000C708.000,684.500 727.083,675.250 755.000,659.500C782.917,643.750 828.000,615.333 852.000,602.500C876.000,589.667 885.500,587.167 899.000,582.500C912.500,577.833 919.667,576.667 933.000,574.500C946.333,572.333 969.333,570.333 979.000,569.500C988.667,568.667 987.000,569.500 991.000,569.500C990.833,571.000 993.250,570.250 990.500,574.000C987.750,577.750 980.167,586.167 974.500,592.000C968.833,597.833 962.500,603.333 956.500,609.000C957.000,609.500 957.500,610.000 958.000,610.500C966.667,603.167 977.417,594.750 984.000,588.500C990.583,582.250 994.167,576.333 997.500,573.000C1000.833,569.667 993.583,569.250 1004.000,568.500C1014.417,567.750 1041.500,567.333 1060.000,568.500C1078.500,569.667 1105.083,573.917 1115.000,575.500C1124.917,577.083 1118.000,577.167 1119.500,578.000C1112.000,585.833 1104.917,593.750 1097.000,601.500C1089.083,609.250 1078.833,618.500 1072.000,624.500C1065.167,630.500 1065.000,631.000 1056.000,637.500C1047.000,644.000 1027.500,657.667 1018.000,663.500C1008.500,669.333 1007.167,669.500 999.000,672.500C990.833,675.500 979.167,679.833 969.000,681.500C958.833,683.167 944.417,682.083 938.000,682.500C931.583,682.917 933.000,683.500 930.500,684.000C930.500,684.667 929.750,684.917 930.500,686.000C931.250,687.083 931.250,687.750 935.000,690.500C938.750,693.250 949.083,699.583 953.000,702.500C956.917,705.417 956.667,706.167 958.500,708.000C958.000,708.500 961.917,707.917 957.000,709.500C952.083,711.083 938.500,715.167 929.000,717.500C919.500,719.833 915.000,721.833 900.000,723.500C885.000,725.167 853.333,726.833 839.000,727.500Z"/>
<path fill="#478421" fill-rule="evenodd" d="M593.000,582.500C591.833,579.667 590.250,578.417 589.500,574.000C588.750,569.583 590.833,566.500 588.500,556.000C586.167,545.500 579.667,523.667 575.500,511.000C571.333,498.333 570.833,497.167 563.500,480.000C556.167,462.833 539.833,427.667 531.500,408.000C523.167,388.333 517.833,374.833 513.500,362.000C509.167,349.167 507.167,338.833 505.500,331.000C503.833,323.167 503.833,322.000 503.500,315.000C503.167,308.000 503.000,296.667 503.500,289.000C504.000,281.333 504.833,276.167 506.500,269.000C508.167,261.833 510.667,253.500 513.500,246.000C516.333,238.500 520.333,231.833 523.500,224.000C526.667,216.167 523.333,219.000 532.500,199.000C541.667,179.000 569.167,122.500 578.500,104.000C587.833,85.500 585.333,93.833 588.500,88.000C591.667,82.167 595.417,72.250 597.500,69.000C599.583,65.750 599.833,68.667 601.000,68.500C606.500,79.000 614.083,93.917 617.500,100.000C620.917,106.083 617.333,97.167 621.500,105.000C625.667,112.833 634.167,129.500 642.500,147.000C650.833,164.500 663.167,189.833 671.500,210.000C679.833,230.167 688.333,254.000 692.500,268.000C696.667,282.000 695.833,287.500 696.500,294.000C697.167,300.500 697.000,300.500 696.500,307.000C696.000,313.500 695.167,324.833 693.500,333.000C691.833,341.167 687.667,351.500 686.500,356.000C685.333,360.500 689.833,350.833 686.500,360.000C683.167,369.167 674.667,391.667 666.500,411.000C658.333,430.333 644.667,459.167 637.500,476.000C630.333,492.833 628.000,498.500 623.500,512.000C619.000,525.500 613.000,545.667 610.500,557.000C608.000,568.333 609.250,575.917 608.500,580.000C607.750,584.083 606.833,581.000 606.000,581.500C605.167,550.333 603.750,507.417 603.500,488.000C603.250,468.583 604.667,529.000 604.500,465.000C604.333,401.000 603.250,166.583 602.500,104.000C601.750,41.417 600.833,94.333 600.000,89.500C599.167,92.000 598.083,88.750 597.500,97.000C596.917,105.250 596.833,65.333 596.500,139.000C596.167,212.667 595.833,465.500 595.500,539.000C595.167,612.500 594.917,572.750 594.500,580.000C594.083,587.250 593.500,581.667 593.000,582.500Z"/>
<path fill="#1d4550" fill-rule="evenodd" d="M578.000,645.500C572.500,637.333 568.750,630.750 561.500,621.000C554.250,611.250 547.000,603.667 534.500,587.000C522.000,570.333 496.500,535.167 486.500,521.000C476.500,506.833 477.500,507.667 474.500,502.000C471.500,496.333 470.000,492.667 468.500,487.000C467.000,481.333 466.000,472.833 465.500,468.000C465.000,463.167 465.500,461.333 465.500,458.000C466.000,457.833 464.417,455.917 467.000,457.500C469.583,459.083 476.333,464.167 481.000,467.500C481.500,467.000 482.000,466.500 482.500,466.000C479.500,461.667 476.167,457.500 473.500,453.000C470.833,448.500 467.833,447.667 466.500,439.000C465.167,430.333 464.000,415.000 465.500,401.000C467.000,387.000 472.667,366.667 475.500,355.000C478.333,343.333 480.250,337.583 482.500,331.000C484.750,324.417 486.833,320.667 489.000,315.500C494.833,335.667 499.417,355.750 506.500,376.000C513.583,396.250 525.333,422.667 531.500,437.000C537.667,451.333 538.167,448.667 543.500,462.000C548.833,475.333 558.833,502.500 563.500,517.000C568.167,531.500 569.333,538.333 571.500,549.000C573.667,559.667 575.667,573.667 576.500,581.000C577.333,588.333 576.000,587.833 576.500,593.000C577.000,598.167 579.250,603.250 579.500,612.000C579.750,620.750 578.500,634.333 578.000,645.500Z M622.000,643.500C621.833,632.000 621.083,618.250 621.500,609.000C621.917,599.750 624.000,593.333 624.500,588.000C625.000,582.667 622.667,588.333 624.500,577.000C626.333,565.667 631.500,535.667 635.500,520.000C639.500,504.333 643.167,495.833 648.500,483.000C653.833,470.167 660.000,460.500 667.500,443.000C675.000,425.500 686.417,399.083 693.500,378.000C700.583,356.917 704.500,337.000 710.000,316.500C710.833,317.667 710.083,313.583 712.500,320.000C714.917,326.417 721.333,344.167 724.500,355.000C727.667,365.833 729.833,376.500 731.500,385.000C733.167,393.500 733.833,398.000 734.500,406.000C735.167,414.000 736.500,425.833 735.500,433.000C734.500,440.167 731.500,443.667 728.500,449.000C725.500,454.333 719.250,461.917 717.500,465.000C715.750,468.083 717.833,466.667 718.000,467.500C720.000,466.500 722.000,466.167 724.000,464.500C726.000,462.833 728.417,458.917 730.000,457.500C731.583,456.083 732.333,456.500 733.500,456.000C733.500,460.333 734.000,464.000 733.500,469.000C733.000,474.000 731.833,481.000 730.500,486.000C729.167,491.000 728.500,493.000 725.500,499.000C722.500,505.000 721.500,508.667 712.500,522.000C703.500,535.333 685.333,560.833 671.500,579.000C657.667,597.167 637.750,620.250 629.500,631.000C621.250,641.750 624.500,639.333 622.000,643.500Z"/>
<path fill="#ffffff" fill-rule="evenodd" d="M503.000,963.500C497.333,964.000 487.167,963.833 482.000,963.500C476.833,963.167 476.667,963.167 472.000,961.500C467.333,959.833 458.167,955.667 454.000,953.500C449.833,951.333 449.917,951.083 447.000,948.500C444.083,945.917 439.417,941.417 436.500,938.000C433.583,934.583 431.833,932.333 429.500,928.000C427.167,923.667 424.167,917.167 422.500,912.000C420.833,906.833 419.833,904.000 419.500,897.000C419.167,890.000 419.500,877.167 420.500,870.000C421.500,862.833 423.333,859.000 425.500,854.000C427.667,849.000 429.917,844.750 433.500,840.000C437.083,835.250 443.250,828.917 447.000,825.500C450.750,822.083 452.833,821.333 456.000,819.500C459.167,817.667 461.833,816.000 466.000,814.500C470.167,813.000 476.500,811.333 481.000,810.500C485.500,809.667 488.333,809.333 493.000,809.500C497.667,809.667 504.333,810.500 509.000,811.500C513.667,812.500 516.667,813.500 521.000,815.500C525.333,817.500 530.583,820.250 535.000,823.500C539.417,826.750 544.417,831.750 547.500,835.000C550.583,838.250 551.333,839.333 553.500,843.000C555.667,846.667 558.667,852.333 560.500,857.000C562.333,861.667 563.833,863.333 564.500,871.000C565.167,878.667 565.167,895.333 564.500,903.000C563.833,910.667 562.333,912.333 560.500,917.000C558.667,921.667 556.917,926.083 553.500,931.000C550.083,935.917 544.083,942.583 540.000,946.500C535.917,950.417 533.000,952.167 529.000,954.500C525.000,956.833 520.333,959.000 516.000,960.500C511.667,962.000 508.667,963.000 503.000,963.500Z M699.000,963.500C691.833,964.167 679.000,963.167 673.000,962.500C667.000,961.833 667.333,961.500 663.000,959.500C658.667,957.500 651.750,954.083 647.000,950.500C642.250,946.917 637.583,941.583 634.500,938.000C631.417,934.417 630.333,932.167 628.500,929.000C626.667,925.833 625.167,923.833 623.500,919.000C621.833,914.167 619.333,907.500 618.500,900.000C617.667,892.500 617.667,881.500 618.500,874.000C619.333,866.500 621.667,860.167 623.500,855.000C625.333,849.833 626.833,847.167 629.500,843.000C632.167,838.833 636.083,833.583 639.500,830.000C642.917,826.417 646.083,824.083 650.000,821.500C653.917,818.917 658.500,816.333 663.000,814.500C667.500,812.667 670.833,811.167 677.000,810.500C683.167,809.833 693.833,809.833 700.000,810.500C706.167,811.167 709.167,812.333 714.000,814.500C718.833,816.667 724.417,819.917 729.000,823.500C733.583,827.083 738.583,832.583 741.500,836.000C744.417,839.417 745.917,842.083 746.500,844.000C747.083,845.917 746.417,846.417 745.000,847.500C743.583,848.583 740.333,849.500 738.000,850.500C734.500,845.333 731.333,839.167 727.500,835.000C723.667,830.833 719.417,827.917 715.000,825.500C710.583,823.083 706.500,821.500 701.000,820.500C695.500,819.500 687.833,819.000 682.000,819.500C676.167,820.000 671.000,821.500 666.000,823.500C661.000,825.500 655.917,828.583 652.000,831.500C648.083,834.417 645.583,836.917 642.500,841.000C639.417,845.083 635.833,850.500 633.500,856.000C631.167,861.500 629.333,866.667 628.500,874.000C627.667,881.333 628.167,894.167 628.500,900.000C628.833,905.833 628.667,904.167 630.500,909.000C632.333,913.833 635.250,922.917 639.500,929.000C643.750,935.083 649.917,941.417 656.000,945.500C662.083,949.583 668.500,952.167 676.000,953.500C683.500,954.833 695.167,954.000 701.000,953.500C706.833,953.000 706.833,952.667 711.000,950.500C715.167,948.333 721.500,945.000 726.000,940.500C730.500,936.000 734.000,929.167 738.000,923.500C740.833,925.000 743.667,926.500 746.500,928.000C744.833,931.333 744.417,934.250 741.500,938.000C738.583,941.750 733.250,947.083 729.000,950.500C724.750,953.917 721.000,956.333 716.000,958.500C711.000,960.667 706.167,962.833 699.000,963.500Z M226.000,961.500C222.500,961.333 219.000,961.167 215.500,961.000C211.500,949.667 206.083,933.583 203.500,927.000C200.917,920.417 211.583,922.417 200.000,921.500C188.417,920.583 145.583,920.917 134.000,921.500C122.417,922.083 133.083,918.583 130.500,925.000C127.917,931.417 120.750,953.917 118.500,960.000C116.250,966.083 119.000,961.333 117.000,961.500C115.000,961.667 110.000,961.167 106.500,961.000C125.000,911.500 143.500,862.000 162.000,812.500C165.000,812.500 169.250,812.083 171.000,812.500C172.750,812.917 163.333,790.167 172.500,815.000C181.667,839.833 208.167,912.667 226.000,961.500Z M282.000,961.500C278.833,961.333 275.667,961.167 272.500,961.000C272.500,911.667 272.500,862.333 272.500,813.000C291.000,812.833 316.083,811.917 328.000,812.500C339.917,813.083 340.000,815.000 344.000,816.500C348.000,818.000 349.250,819.250 352.000,821.500C354.750,823.750 358.083,826.750 360.500,830.000C362.917,833.250 365.167,837.833 366.500,841.000C367.833,844.167 368.167,845.000 368.500,849.000C368.833,853.000 369.000,860.500 368.500,865.000C368.000,869.500 366.667,873.000 365.500,876.000C364.333,879.000 363.750,880.250 361.500,883.000C359.250,885.750 355.917,889.750 352.000,892.500C348.083,895.250 341.667,898.000 338.000,899.500C334.333,901.000 339.000,901.167 330.000,901.500C321.000,901.833 291.917,901.250 284.000,901.500C276.083,901.750 282.833,893.000 282.500,903.000C282.167,913.000 282.167,942.000 282.000,961.500Z M906.000,961.500C902.500,961.333 899.000,961.167 895.500,961.000C891.167,948.667 885.083,930.583 882.500,924.000C879.917,917.417 891.417,921.917 880.000,921.500C868.583,921.083 825.417,921.250 814.000,921.500C802.583,921.750 814.083,916.583 811.500,923.000C808.917,929.417 800.917,953.583 798.500,960.000C796.083,966.417 798.833,961.333 797.000,961.500C795.167,961.667 790.667,961.167 787.500,961.000C805.667,911.500 823.833,862.000 842.000,812.500C845.000,812.500 849.250,812.250 851.000,812.500C852.750,812.750 843.417,789.917 852.500,814.000C861.583,838.083 896.583,932.417 905.500,957.000C914.417,981.583 905.833,960.000 906.000,961.500Z M1076.000,961.500C1074.167,961.667 1069.667,961.167 1066.500,961.000C1066.333,918.833 1066.167,876.667 1066.000,834.500C1049.000,860.167 1032.000,885.833 1015.000,911.500C1013.167,909.333 1017.583,917.250 1009.500,905.000C1001.417,892.750 974.167,849.500 966.500,838.000C958.833,826.500 964.500,836.667 963.500,836.000C963.500,877.667 963.500,919.333 963.500,961.000C959.833,961.000 956.167,961.000 952.500,961.000C952.500,912.000 952.250,838.750 952.500,814.000C952.750,789.250 952.500,812.667 954.000,812.500C955.500,812.333 951.500,799.500 961.500,813.000C971.500,826.500 996.500,866.667 1014.000,893.500C1015.167,892.667 1008.417,904.417 1017.500,891.000C1026.583,877.583 1058.750,826.083 1068.500,813.000C1078.250,799.917 1074.500,812.333 1076.000,812.500C1077.500,812.667 1077.250,789.417 1077.500,814.000C1077.750,838.583 1077.750,935.417 1077.500,960.000C1077.250,984.583 1077.833,961.333 1076.000,961.500Z M499.500,954.000C504.000,953.500 509.583,952.417 513.000,951.500C516.417,950.583 516.833,950.333 520.000,948.500C523.167,946.667 528.083,943.917 532.000,940.500C535.917,937.083 539.917,933.750 543.500,928.000C547.083,922.250 551.500,911.667 553.500,906.000C555.500,900.333 555.167,898.333 555.500,894.000C555.833,889.667 555.833,884.333 555.500,880.000C555.167,875.667 555.000,872.833 553.500,868.000C552.000,863.167 550.083,856.750 546.500,851.000C542.917,845.250 536.083,837.583 532.000,833.500C527.917,829.417 525.667,828.500 522.000,826.500C518.333,824.500 513.833,822.667 510.000,821.500C506.167,820.333 503.000,819.833 499.000,819.500C495.000,819.167 491.667,818.500 486.000,819.500C480.333,820.500 470.333,823.333 465.000,825.500C459.667,827.667 457.917,829.083 454.000,832.500C450.083,835.917 444.917,841.250 441.500,846.000C438.083,850.750 435.333,856.667 433.500,861.000C431.667,865.333 431.167,866.000 430.500,872.000C429.833,878.000 429.000,890.167 429.500,897.000C430.000,903.833 431.833,908.333 433.500,913.000C435.167,917.667 436.083,920.250 439.500,925.000C442.917,929.750 448.583,937.083 454.000,941.500C459.417,945.917 466.667,949.333 472.000,951.500C477.333,953.667 481.417,954.083 486.000,954.500C490.583,954.917 495.000,954.500 499.500,954.000Z M329.500,892.000C339.500,891.000 340.667,888.167 344.000,886.500C347.333,884.833 347.750,883.917 349.500,882.000C351.250,880.083 353.000,878.000 354.500,875.000C356.000,872.000 357.833,868.333 358.500,864.000C359.167,859.667 359.000,853.000 358.500,849.000C358.000,845.000 357.250,843.083 355.500,840.000C353.750,836.917 350.417,832.917 348.000,830.500C345.583,828.083 343.500,826.833 341.000,825.500C338.500,824.167 342.500,823.167 333.000,822.500C323.500,821.833 292.417,821.417 284.000,821.500C275.583,821.583 282.750,811.417 282.500,823.000C282.250,834.583 282.250,879.417 282.500,891.000C282.750,902.583 276.167,892.333 284.000,892.500C291.833,892.667 319.500,893.000 329.500,892.000Z M196.500,913.000C196.500,911.333 201.417,922.083 196.500,908.000C191.583,893.917 176.833,855.000 167.000,828.500C165.500,831.333 167.750,823.083 162.500,837.000C157.250,850.917 144.500,887.000 135.500,912.000C136.000,912.500 126.833,913.333 137.000,913.500C147.167,913.667 176.667,913.167 196.500,913.000Z M877.500,913.000C877.167,911.000 881.583,921.083 876.500,907.000C871.417,892.917 856.833,854.667 847.000,828.500C836.500,856.333 826.000,884.167 815.500,912.000C816.000,912.500 806.667,913.333 817.000,913.500C827.333,913.667 857.333,913.167 877.500,913.000Z"/>
</svg>