<?xml version="1.0" encoding="UTF-8"?>
<!-- APOCAM logo - vetor traçado a partir do PNG original | cores exatas da marca -->
<svg xmlns="http://www.w3.org/2000/svg" width="960" height="654" viewBox="0 0 960 654" fill-rule="evenodd" shape-rendering="geometricPrecision"><title>APOCAM simbolo (branco)</title>
<path fill="#ffffff" fill-rule="evenodd" d="M486.000,475.500C485.500,475.333 485.000,475.167 484.500,475.000C484.167,468.333 483.833,510.333 483.500,455.000C483.167,399.667 482.833,204.667 482.500,143.000C482.167,81.333 481.917,95.917 481.500,85.000C481.083,74.083 480.500,80.000 480.000,77.500C479.167,80.667 478.083,33.750 477.500,87.000C476.917,140.250 476.833,332.500 476.500,397.000C476.167,461.500 475.917,460.917 475.500,474.000C475.083,487.083 474.500,475.000 474.000,475.500C473.167,474.000 471.917,473.750 471.500,471.000C471.083,468.250 473.167,467.167 471.500,459.000C469.833,450.833 471.500,448.167 461.500,422.000C451.500,395.833 421.000,326.000 411.500,302.000C402.000,278.000 406.167,285.167 404.500,278.000C402.833,270.833 402.000,265.333 401.500,259.000C401.000,252.667 401.167,245.500 401.500,240.000C401.833,234.500 402.000,232.167 403.500,226.000C405.000,219.833 407.167,212.333 410.500,203.000C413.833,193.667 418.000,182.667 423.500,170.000C429.000,157.333 437.000,140.500 443.500,127.000C450.000,113.500 456.583,100.083 462.500,89.000C468.417,77.917 473.500,70.000 479.000,60.500C479.833,60.667 477.750,54.750 481.500,61.000C485.250,67.250 492.667,80.333 501.500,98.000C510.333,115.667 526.333,148.667 534.500,167.000C542.667,185.333 546.667,196.167 550.500,208.000C554.333,219.833 556.333,229.167 557.500,238.000C558.667,246.833 558.833,251.167 557.500,261.000C556.167,270.833 558.833,272.000 549.500,297.000C540.167,322.000 511.500,385.333 501.500,411.000C491.500,436.667 492.083,440.250 489.500,451.000C486.917,461.750 487.167,467.333 486.000,475.500Z M433.000,547.500C415.667,539.833 410.667,539.333 381.000,524.500C351.333,509.667 281.167,472.833 255.000,458.500C228.833,444.167 233.083,445.250 224.000,438.500C214.917,431.750 206.750,424.083 200.500,418.000C194.250,411.917 190.333,407.167 186.500,402.000C182.667,396.833 180.667,392.833 177.500,387.000C174.333,381.167 171.333,376.333 167.500,367.000C163.667,357.667 158.333,344.167 154.500,331.000C150.667,317.833 147.667,304.833 144.500,288.000C141.333,271.167 136.917,240.750 135.500,230.000C134.083,219.250 135.833,225.667 136.000,223.500C162.500,239.333 200.750,258.917 215.500,271.000C230.250,283.083 222.333,289.000 224.500,296.000C226.667,303.000 225.167,303.167 228.500,313.000C231.833,322.833 238.333,341.167 244.500,355.000C250.667,368.833 259.250,385.417 265.500,396.000C271.750,406.583 276.500,411.000 282.000,418.500C282.167,417.667 286.750,424.750 282.500,416.000C278.250,407.250 262.667,378.667 256.500,366.000C250.333,353.333 249.000,349.167 245.500,340.000C242.000,330.833 238.333,320.833 235.500,311.000C232.667,301.167 230.833,291.000 228.500,281.000C235.000,284.833 237.583,284.917 248.000,292.500C258.417,300.083 279.917,316.750 291.000,326.500C302.083,336.250 308.917,344.917 314.500,351.000C320.083,357.083 318.667,354.333 324.500,363.000C330.333,371.667 333.667,376.000 349.500,403.000C365.333,430.000 405.500,501.167 419.500,525.000C433.500,548.833 431.250,542.250 433.500,546.000C435.750,549.750 433.167,547.000 433.000,547.500Z M526.000,547.500C517.250,551.250 525.000,547.167 524.500,547.000C525.167,545.667 518.667,555.833 526.500,543.000C534.333,530.167 558.333,492.167 571.500,470.000C584.667,447.833 595.167,427.667 605.500,410.000C615.833,392.333 626.333,374.833 633.500,364.000C640.667,353.167 644.083,350.083 648.500,345.000C652.917,339.917 650.750,341.417 660.000,333.500C669.250,325.583 692.500,306.333 704.000,297.500C715.500,288.667 724.417,283.250 729.000,280.500C733.583,277.750 730.667,280.833 731.500,281.000C730.500,286.000 732.167,284.167 728.500,296.000C724.833,307.833 716.667,334.333 709.500,352.000C702.333,369.667 691.500,390.500 685.500,402.000C679.500,413.500 677.500,414.667 673.500,421.000C674.000,421.167 674.500,421.333 675.000,421.500C681.500,412.333 688.417,403.583 694.500,394.000C700.583,384.417 706.333,375.000 711.500,364.000C716.667,353.000 720.000,343.667 725.500,328.000C731.000,312.333 733.417,284.583 744.500,270.000C755.583,255.417 779.083,248.083 792.000,240.500C804.917,232.917 812.000,229.833 822.000,224.500C822.500,225.000 823.250,223.917 823.500,226.000C823.750,228.083 823.833,232.667 823.500,237.000C823.167,241.333 823.500,241.000 821.500,252.000C819.500,263.000 814.667,288.667 811.500,303.000C808.333,317.333 807.167,324.667 802.500,338.000C797.833,351.333 790.167,370.500 783.500,383.000C776.833,395.500 770.917,403.417 762.500,413.000C754.083,422.583 744.917,431.583 733.000,440.500C721.083,449.417 717.000,452.500 691.000,466.500C665.000,480.500 604.500,511.000 577.000,524.500C549.500,538.000 534.750,543.750 526.000,547.500Z M462.000,526.500C436.833,492.333 400.417,443.250 386.500,424.000C372.583,404.750 380.667,415.333 378.500,411.000C376.333,406.667 374.667,403.833 373.500,398.000C372.333,392.167 372.167,383.333 371.500,376.000C372.000,375.833 370.917,374.250 373.000,375.500C375.083,376.750 381.917,382.250 384.000,383.500C386.083,384.750 385.000,383.167 385.500,383.000C382.167,378.000 377.833,372.167 375.500,368.000C373.167,363.833 372.167,364.667 371.500,358.000C370.833,351.333 370.000,339.833 371.500,328.000C373.000,316.167 377.417,298.250 380.500,287.000C383.583,275.750 386.833,269.333 390.000,260.500C395.167,277.667 398.583,293.417 405.500,312.000C412.417,330.583 424.000,353.500 431.500,372.000C439.000,390.500 446.167,410.000 450.500,423.000C454.833,436.000 455.667,440.500 457.500,450.000C459.333,459.500 460.500,471.667 461.500,480.000C462.500,488.333 463.417,492.250 463.500,500.000C463.583,507.750 462.500,517.667 462.000,526.500Z M497.000,525.500C497.833,507.667 497.583,488.583 499.500,472.000C501.417,455.417 505.833,437.333 508.500,426.000C511.167,414.667 510.500,416.000 515.500,404.000C520.500,392.000 531.500,370.500 538.500,354.000C545.500,337.500 552.417,320.583 557.500,305.000C562.583,289.417 565.167,275.333 569.000,260.500C572.833,271.000 577.250,280.417 580.500,292.000C583.750,303.583 587.167,319.000 588.500,330.000C589.833,341.000 589.333,351.500 588.500,358.000C587.667,364.500 585.833,365.167 583.500,369.000C581.167,372.833 577.500,377.000 574.500,381.000C575.333,381.500 576.167,382.000 577.000,382.500C580.333,379.500 583.667,376.500 587.000,373.500C587.500,374.000 588.750,371.083 588.500,375.000C588.250,378.917 587.500,389.833 585.500,397.000C583.500,404.167 579.500,412.167 576.500,418.000C573.500,423.833 574.167,422.500 567.500,432.000C560.833,441.500 544.833,464.167 536.500,475.000C528.167,485.833 524.083,488.583 517.500,497.000C510.917,505.417 503.833,516.000 497.000,525.500Z M317.000,592.500C295.500,594.500 266.167,593.333 250.000,592.500C233.833,591.667 229.500,589.667 220.000,587.500C210.500,585.333 197.917,581.250 193.000,579.500C188.083,577.750 191.333,577.833 190.500,577.000C196.333,572.500 204.667,566.167 208.000,563.500C211.333,560.833 210.167,561.833 210.500,561.000C210.833,560.167 210.167,559.333 210.000,558.500C196.667,556.833 179.333,555.167 170.000,553.500C160.667,551.833 159.167,550.500 154.000,548.500C148.833,546.500 145.167,545.167 139.000,541.500C132.833,537.833 125.000,532.500 117.000,526.500C109.000,520.500 100.250,513.917 91.000,505.500C81.750,497.083 66.750,481.583 61.500,476.000C56.250,470.417 60.167,473.333 59.500,472.000C65.333,470.500 67.917,468.750 77.000,467.500C86.083,466.250 101.000,464.833 114.000,464.500C127.000,464.167 145.667,462.667 155.000,465.500C164.333,468.333 164.167,476.000 170.000,481.500C175.833,487.000 183.333,492.833 190.000,498.500C190.167,498.000 190.333,497.500 190.500,497.000C186.167,492.667 181.917,489.083 177.500,484.000C173.083,478.917 168.500,472.333 164.000,466.500C175.000,466.833 185.833,466.333 197.000,467.500C208.167,468.667 223.167,471.833 231.000,473.500C238.833,475.167 237.333,474.833 244.000,477.500C250.667,480.167 252.500,479.167 271.000,489.500C289.500,499.833 331.917,526.250 355.000,539.500C378.083,552.750 391.333,559.167 409.500,569.000C409.000,569.833 413.083,569.583 408.000,571.500C402.917,573.417 394.167,577.000 379.000,580.500C363.833,584.000 338.500,590.500 317.000,592.500Z M676.000,593.500C666.667,593.667 662.500,594.500 652.000,593.500C641.500,592.500 626.333,590.000 613.000,587.500C599.667,585.000 582.333,581.167 572.000,578.500C561.667,575.833 554.917,573.083 551.000,571.500C547.083,569.917 549.333,569.833 548.500,569.000C572.667,555.833 598.250,542.417 621.000,529.500C643.750,516.583 669.333,500.000 685.000,491.500C700.667,483.000 707.333,481.500 715.000,478.500C722.667,475.500 724.000,475.167 731.000,473.500C738.000,471.833 746.333,469.833 757.000,468.500C767.667,467.167 782.333,466.500 795.000,465.500C795.167,466.667 800.083,463.583 795.500,469.000C790.917,474.417 776.833,488.333 767.500,498.000C768.333,498.167 763.750,503.917 770.000,498.500C776.250,493.083 790.167,471.000 805.000,465.500C819.833,460.000 843.417,464.417 859.000,465.500C874.583,466.583 885.333,469.833 898.500,472.000C898.500,472.667 904.583,467.750 898.500,474.000C892.417,480.250 875.083,498.417 862.000,509.500C848.917,520.583 829.333,534.167 820.000,540.500C810.667,546.833 811.667,545.167 806.000,547.500C800.333,549.833 791.833,552.833 786.000,554.500C780.167,556.167 777.333,557.000 771.000,557.500C764.667,558.000 752.083,557.250 748.000,557.500C743.917,557.750 747.000,558.500 746.500,559.000C747.333,560.167 745.250,559.583 749.000,562.500C752.750,565.417 765.667,573.833 769.000,576.500C772.333,579.167 769.000,577.833 769.000,578.500C755.000,582.167 737.167,587.167 727.000,589.500C716.833,591.833 716.500,591.833 708.000,592.500C699.500,593.167 685.333,593.333 676.000,593.500Z"/>
</svg>